<?xml version="1.0" encoding="utf-8"?>
<!-- Generator: Adobe Illustrator 20.1.0, SVG Export Plug-In . SVG Version: 6.00 Build 0)  -->
<svg version="1.1" id="Слой_1" xmlns="http://www.w3.org/2000/svg" xmlns:xlink="http://www.w3.org/1999/xlink" x="0px" y="0px"
	 viewBox="0 0 35 40" style="enable-background:new 0 0 35 40;" xml:space="preserve">
<style type="text/css">
	.st0{fill:none;stroke:#021334;stroke-width:2;}
</style>
<path class="st0" d="M12.4,29.9c1.1,2,3,3,5,3s3.9-1,5-3l5.3-10.2L33,9.3 M12.4,29.9L7.1,19.7L1.6,9.3c-2-3.8,0.8-8.3,5-8.3h21.4
	c4.2,0,6.9,4.5,5,8.3"/>
<path class="st0" d="M33.1,30.2L33.1,30.2L22.3,9.5c0,0,0,0,0,0c-2.1-4-7.9-4-10,0L1.6,30.2c0,0,0,0,0,0c-2,3.8,0.8,8.3,5,8.3h21.4
	C32.3,38.4,35,33.9,33.1,30.2z"/>
</svg>
