<?xml version="1.0" encoding="utf-8"?>
<!-- Generator: Adobe Illustrator 20.1.0, SVG Export Plug-In . SVG Version: 6.00 Build 0)  -->
<svg version="1.1" id="Слой_1" xmlns="http://www.w3.org/2000/svg" xmlns:xlink="http://www.w3.org/1999/xlink" x="0px" y="0px"
	 viewBox="0 0 40.6 46.2" style="enable-background:new 0 0 40.6 46.2;" xml:space="preserve">
<style type="text/css">
	.st0{fill:#021334;}
</style>
<path class="st0" d="M39.8,34.5l-6-11.4l5.9-11.6l0,0C41,9,40.8,6,39.4,3.7C38,1.4,35.5,0,32.7,0H7.9C5.1,0,2.6,1.4,1.1,3.8
	c-1.4,2.4-1.5,5.3-0.2,7.8l6,11.3l-6,11.7c-1.3,2.5-1.2,5.4,0.2,7.8c1.4,2.4,4,3.8,6.8,3.8h24.8c2.8-0.1,5.4-1.5,6.8-4
	C40.9,39.8,41,36.9,39.8,34.5z M3.3,10.3C2.4,8.7,2.5,6.8,3.4,5.2c1-1.6,2.6-2.5,4.5-2.5h24.8c1.8,0,3.4,0.9,4.4,2.4
	c1,1.6,1.1,3.5,0.2,5.2l-5,9.9l-5-9.6c-1.4-2.6-4-4.2-7-4.2s-5.6,1.6-7,4.2L8.4,20L3.3,10.3z M30.8,23.1l-5.7,11
	c-1,1.8-2.7,2.8-4.6,2.8c-2,0-3.6-1-4.6-2.7L10,22.9l5.7-11.1C16.6,10,18.3,9,20.3,9s3.7,1,4.6,2.8L30.8,23.1z M37.2,40.7
	c-1,1.6-2.7,2.6-4.5,2.6H7.9c-1.8,0-3.5-0.9-4.5-2.5s-1-3.5-0.1-5.1l5.2-10l5,9.7c1.4,2.6,4,4.2,7,4.2s5.5-1.6,7-4.2l4.8-9.4
	l5.1,9.7C38.2,37.3,38.1,39.2,37.2,40.7z"/>
</svg>
