<?xml version="1.0" encoding="utf-8"?>
<!-- Generator: Adobe Illustrator 20.1.0, SVG Export Plug-In . SVG Version: 6.00 Build 0)  -->
<svg version="1.1" id="Слой_1" xmlns="http://www.w3.org/2000/svg" xmlns:xlink="http://www.w3.org/1999/xlink" x="0px" y="0px"
	 viewBox="0 0 67 75" style="enable-background:new 0 0 67 75;" xml:space="preserve">
<style type="text/css">
	.st0{fill:#010E23;}
</style>
<path class="st0" d="M55,37.7l9.8-18.9l0,0c2.1-3.9,1.9-8.6-0.4-12.4c-2.3-3.8-6.3-6-10.7-6H13.2c-4.4,0-8.4,2.3-10.7,6
	C0.2,10.3,0,14.9,2.1,18.8l9.8,18.9L2.1,56.6C0,60.5,0.2,65.2,2.5,69c2.3,3.8,6.3,6,10.7,6h40.6c4.4,0,8.4-2.3,10.7-6
	c2.3-3.8,2.5-8.4,0.4-12.4L55,37.7z M6.5,16.5C5.3,14.1,5.4,11.3,6.8,9c1.4-2.3,3.8-3.6,6.4-3.6h40.6c2.6,0,5,1.4,6.4,3.6
	c1.4,2.3,1.5,5.1,0.2,7.5l0,0l-8.2,15.8l-7.6-14.7c-2.2-4.2-6.4-6.8-11.1-6.8s-8.9,2.6-11.1,6.8l-7.6,14.7L6.5,16.5z M49.4,37.7
	l-9.3,17.8c-1.3,2.5-3.8,4.1-6.7,4.1c-2.8,0-5.3-1.5-6.6-4l-9.3-17.9l9.3-17.8c1.3-2.5,3.8-4.1,6.7-4.1s5.3,1.5,6.7,4.1L49.4,37.7z
	 M60.2,66.4c-1.4,2.3-3.8,3.6-6.4,3.6H13.2c-2.6,0-5-1.4-6.4-3.6c-1.4-2.3-1.5-5.1-0.2-7.5l8.2-15.8l7.6,14.7
	c2.2,4.2,6.4,6.8,11.1,6.8c4.7,0,8.9-2.6,11.1-6.8l7.6-14.7l8.2,15.8C61.7,61.3,61.6,64.1,60.2,66.4z"/>
</svg>
