<?xml version="1.0" encoding="utf-8"?>
<!-- Generator: Adobe Illustrator 20.1.0, SVG Export Plug-In . SVG Version: 6.00 Build 0)  -->
<svg version="1.1" id="Слой_1" xmlns="http://www.w3.org/2000/svg" xmlns:xlink="http://www.w3.org/1999/xlink" x="0px" y="0px"
	 viewBox="0 0 35 41" style="enable-background:new 0 0 35 41;" xml:space="preserve">
<style type="text/css">
	.st0{fill:none;stroke:#FFFFFF;stroke-width:2;}
</style>
<path class="st0" d="M12.4,30.8L7.1,20.6L1.6,10.2c-2-3.8,0.8-8.3,5-8.3H28c4.2,0,6.9,4.5,5,8.3l-5.3,10.4l-5.3,10.2c-1.1,2-3,3-5,3
	S13.5,32.8,12.4,30.8z"/>
<path class="st0" d="M33.1,31L33.1,31L22.3,10.4c-2.1-4-7.9-4-10,0L1.6,31l0,0c-2,3.8,0.8,8.3,5,8.3H28C32.3,39.3,35,34.8,33.1,31z"
	/>
</svg>
