<?xml version="1.0" encoding="utf-8"?>
<!-- Generator: Adobe Illustrator 20.1.0, SVG Export Plug-In . SVG Version: 6.00 Build 0)  -->
<svg version="1.1" id="Слой_1" xmlns="http://www.w3.org/2000/svg" xmlns:xlink="http://www.w3.org/1999/xlink" x="0px" y="0px"
	 viewBox="0 0 58 58" style="enable-background:new 0 0 58 58;" xml:space="preserve">
<style type="text/css">
	.st0{fill:#021334;}
</style>
<path class="st0" d="M48.5,40.5l-6-11.4l5.9-11.6l0,0c1.3-2.5,1.1-5.5-0.3-7.8c-1.4-2.3-3.9-3.7-6.7-3.7H16.6
	c-2.8,0-5.3,1.4-6.8,3.8c-1.4,2.4-1.5,5.3-0.2,7.8l6,11.3l-6,11.7c-1.3,2.5-1.2,5.4,0.2,7.8c1.4,2.4,4,3.8,6.8,3.8h24.8
	c2.8-0.1,5.4-1.5,6.8-4C49.6,45.8,49.7,42.9,48.5,40.5z M12,16.3c-0.9-1.6-0.8-3.5,0.1-5.1c1-1.6,2.6-2.5,4.5-2.5h24.8
	c1.8,0,3.4,0.9,4.4,2.4c1,1.6,1.1,3.5,0.2,5.2l-5,9.9l-5-9.6c-1.4-2.6-4-4.2-7-4.2s-5.6,1.6-7,4.2l-4.9,9.4L12,16.3z M39.5,29.1
	l-5.7,11c-1,1.8-2.7,2.8-4.6,2.8c-2,0-3.6-1-4.6-2.7l-5.9-11.3l5.7-11.1C25.3,16,27,15,29,15c2,0,3.7,1,4.6,2.8L39.5,29.1z
	 M45.9,46.7c-1,1.6-2.7,2.6-4.5,2.6H16.6c-1.8,0-3.5-0.9-4.5-2.5c-1-1.6-1-3.5-0.1-5.1l5.2-10l5,9.7c1.4,2.6,4,4.2,7,4.2
	s5.5-1.6,7-4.2L41,32l5.1,9.7C46.9,43.3,46.8,45.2,45.9,46.7z"/>
</svg>
