<svg width="35" height="41" viewBox="0 0 35 41" fill="none" xmlns="http://www.w3.org/2000/svg">
<g clip-path="url(#clip0_1741_26)">
<path d="M12.3999 30.8004L7.09994 20.6004L1.59994 10.2004C-0.400059 6.40039 2.39994 1.90039 6.59994 1.90039H27.9999C32.1999 1.90039 34.8999 6.40039 32.9999 10.2004L27.6999 20.6004L22.3999 30.8004C21.2999 32.8004 19.3999 33.8004 17.3999 33.8004C15.3999 33.8004 13.4999 32.8004 12.3999 30.8004Z" stroke="white" stroke-width="2"/>
<path d="M33.0999 31.0004L22.2999 10.4004C20.1999 6.40039 14.3999 6.40039 12.2999 10.4004L1.59994 31.0004C-0.400059 34.8004 2.39994 39.3004 6.59994 39.3004H27.9999C32.2999 39.3004 34.9999 34.8004 33.0999 31.0004Z" stroke="white" stroke-width="2"/>
</g>
<defs>
<clipPath id="clip0_1741_26">
<rect width="35" height="41" fill="white"/>
</clipPath>
</defs>
</svg>
