<svg width="54" height="50" viewBox="0 0 54 50" fill="none" xmlns="http://www.w3.org/2000/svg">
<path d="M26.7744 0.00112549C12.1412 0.00112549 0.214894 11.1261 0.214894 24.7761C0.214894 29.151 1.44772 33.401 3.75258 37.151L0.000488281 50.001L14.0708 46.551C17.9569 48.526 22.3254 49.576 26.7744 49.576C41.4075 49.576 53.3338 38.451 53.3338 24.8011C53.3338 18.1761 50.5733 11.9511 45.5616 7.2761C43.1045 4.96093 40.1779 3.12529 36.9523 1.87625C33.7267 0.627209 30.2668 -0.0102237 26.7744 0.00112549ZM26.8012 4.17611C32.6973 4.17611 38.2182 6.32611 42.3991 10.2261C44.451 12.1395 46.0778 14.4119 47.1862 16.913C48.2946 19.4141 48.8627 22.0947 48.8581 24.8011C48.8581 36.151 38.9419 45.376 26.7744 45.376C22.8079 45.376 18.9218 44.401 15.5449 42.501L14.7409 42.076L6.37905 44.126L8.6035 36.526L8.06749 35.726C5.85359 32.4477 4.6826 28.6506 4.69061 24.7761C4.71741 13.4261 14.6069 4.17611 26.8012 4.17611ZM17.3673 13.3261C16.9385 13.3261 16.2149 13.4761 15.5985 14.1011C15.0089 14.7261 13.2668 16.2511 13.2668 19.2761C13.2668 22.3261 15.6521 25.2511 15.9469 25.676C16.3221 26.101 20.6638 32.351 27.3372 35.001C28.9184 35.676 30.1512 36.051 31.1161 36.326C32.6973 36.801 34.1445 36.726 35.297 36.576C36.5834 36.401 39.2099 35.076 39.7727 33.626C40.3355 32.176 40.3355 30.951 40.1747 30.676C39.9871 30.426 39.5583 30.276 38.8883 30.001C38.2182 29.651 34.9486 28.151 34.3589 27.951C33.7425 27.751 33.3673 27.651 32.8581 28.251C32.4293 28.876 31.1429 30.276 30.7677 30.676C30.3656 31.101 29.9904 31.151 29.3472 30.851C28.6504 30.526 26.5063 29.876 23.9871 27.776C22.0038 26.126 20.6906 24.1011 20.2886 23.4761C19.967 22.8761 20.2618 22.5011 20.5834 22.2261C20.8782 21.9511 21.307 21.5011 21.575 21.1261C21.9234 20.7761 22.0306 20.5011 22.245 20.1011C22.4594 19.6761 22.3522 19.3261 22.1914 19.0261C22.0306 18.7511 20.6906 15.6511 20.1278 14.4261C19.5918 13.2261 19.0558 13.3761 18.627 13.3511C18.2517 13.3511 17.8229 13.3261 17.3673 13.3261Z" fill="black"/>
</svg>
