<svg width="51" height="50" viewBox="0 0 51 50" fill="none" xmlns="http://www.w3.org/2000/svg">
<path d="M17.6772 27.6832L17.5403 27.7631L11.3584 25.8353L11.3576 25.835C11.0328 25.7358 10.803 25.6094 10.6611 25.4753C10.5218 25.3436 10.4727 25.2111 10.4855 25.0841C10.4988 24.9514 10.5827 24.7917 10.7783 24.6184C10.9728 24.4461 11.2665 24.2709 11.6712 24.1081C11.6715 24.1079 11.6719 24.1078 11.6722 24.1076L36.0028 14.7084L36.0054 14.7074C36.6912 14.4277 37.1638 14.491 37.419 14.7601C37.6835 15.0391 37.7866 15.6074 37.5608 16.507L37.5607 16.5069L37.5595 16.5124L33.4145 36.0624L33.4144 36.0629C33.2735 36.7392 33.0087 37.1132 32.6816 37.2612C32.3555 37.4087 31.9122 37.3568 31.3524 37.0494L24.983 32.3354L24.8809 32.2599L24.7896 32.3481L21.8171 35.2181L21.817 35.2182L21.7972 35.2373C21.4988 35.5261 21.2846 35.7333 20.879 35.7873L20.8781 35.7874C20.6642 35.8172 20.4922 35.797 20.3437 35.7003C20.1925 35.6018 20.0414 35.4082 19.9061 35.0385L17.7323 27.865L17.6772 27.6832ZM25.3337 45.151C30.6779 45.151 35.8031 43.028 39.5819 39.2492C43.3608 35.4703 45.4837 30.3451 45.4837 25.001C45.4837 19.6569 43.3608 14.5316 39.5819 10.7528C35.8031 6.97392 30.6779 4.85098 25.3337 4.85098C19.9896 4.85098 14.8644 6.97392 11.0855 10.7528C7.30668 14.5316 5.18374 19.6569 5.18374 25.001C5.18374 30.3451 7.30668 35.4703 11.0855 39.2492C14.8644 43.028 19.9896 45.151 25.3337 45.151ZM25.3337 49.851C11.6091 49.851 0.48374 38.7256 0.48374 25.001C0.48374 11.2763 11.6091 0.150977 25.3337 0.150977C39.0584 0.150977 50.1837 11.2763 50.1837 25.001C50.1837 38.7256 39.0584 49.851 25.3337 49.851Z" fill="black" stroke="white" stroke-width="0.3"/>
</svg>
