<?xml version="1.0" encoding="utf-8"?>
<!-- Generator: Adobe Illustrator 20.1.0, SVG Export Plug-In . SVG Version: 6.00 Build 0)  -->
<svg version="1.1" id="Слой_1" xmlns="http://www.w3.org/2000/svg" xmlns:xlink="http://www.w3.org/1999/xlink" x="0px" y="0px"
	 viewBox="0 0 51 50" style="enable-background:new 0 0 51 50;" xml:space="preserve">
<style type="text/css">
	.st0{fill:#010E23;}
</style>
<g>
	<path class="st0" d="M25.7,12.4c-3.4,0-6.5,1.3-8.9,3.7S13,21.6,13,25s1.3,6.5,3.7,8.9s5.6,3.7,8.9,3.7s6.5-1.3,8.9-3.7
		s3.7-5.6,3.7-8.9s-1.3-6.5-3.7-8.9S29,12.4,25.7,12.4z M31.7,31c-1.6,1.6-3.8,2.5-6,2.5c-2.3,0-4.4-0.9-6-2.5
		c-1.6-1.6-2.5-3.8-2.5-6c0-2.3,0.9-4.4,2.5-6c1.6-1.6,3.8-2.5,6-2.5c2.3,0,4.4,0.9,6,2.5c1.6,1.6,2.5,3.8,2.5,6
		C34.2,27.3,33.3,29.4,31.7,31z"/>
	<path class="st0" d="M39,8.9c-0.7,0-1.5,0.3-2,0.8c-0.5,0.5-0.8,1.2-0.8,2c0,0.4,0.1,0.7,0.2,1.1c0.1,0.3,0.3,0.6,0.6,0.9
		c0.3,0.3,0.6,0.5,0.9,0.6c0.7,0.3,1.5,0.3,2.1,0c0.3-0.1,0.6-0.3,0.9-0.6c0.3-0.3,0.5-0.6,0.6-0.9c0.1-0.3,0.2-0.7,0.2-1.1
		c0-0.7-0.3-1.5-0.8-2C40.5,9.1,39.8,8.9,39,8.9z"/>
	<path class="st0" d="M49.2,8.7L49.2,8.7c-0.6-1.6-1.6-3.1-2.8-4.4l0,0c-1.2-1.2-2.7-2.2-4.4-2.8c-1.8-0.7-3.6-1-6-1.1
		c-1.2-0.1-5.3-0.1-10.3-0.1c-5,0-9.1,0-10.3,0.1c-2.4,0.1-4.2,0.5-6,1.1C7.7,2.1,6.2,3.1,5,4.3C3.8,5.6,2.8,7.1,2.2,8.7
		c-0.7,1.8-1,3.6-1.1,6C0.9,17.4,0.9,18.3,0.9,25s0,7.6,0.1,10.3c0.1,2.4,0.5,4.2,1.1,6c0.6,1.6,1.6,3.1,2.8,4.4l0,0
		c1.2,1.2,2.7,2.2,4.3,2.8l0,0c1.8,0.7,3.6,1,6,1.1c1.2,0.1,5.2,0.1,10.3,0.1c5.1,0,9.1,0,10.3-0.1c2.4-0.1,4.2-0.5,6-1.1l0,0
		c1.6-0.6,3.1-1.6,4.4-2.8c1.2-1.2,2.2-2.7,2.8-4.4l0,0c0.7-1.8,1-3.6,1.1-6c0.1-2.7,0.2-3.6,0.2-10.3c0-6.7,0-7.6-0.2-10.3
		C50.2,12.3,49.9,10.5,49.2,8.7z M46.2,35.1c-0.1,2.5-0.5,3.8-0.9,4.7c-0.4,1.1-1.1,2.1-1.9,2.9c-0.9,0.9-1.7,1.4-2.9,1.9
		c-0.9,0.3-2.3,0.8-4.7,0.9v0c-1.5,0.1-6.4,0.1-10.1,0.1c-3.8,0-8.6,0-10.1-0.1v0c-2.4-0.1-3.8-0.5-4.7-0.9c-1.2-0.5-2.1-1-2.9-1.9
		c-0.8-0.8-1.5-1.8-1.9-2.9c-0.3-0.9-0.8-2.2-0.9-4.7C5,32.5,5,31.7,5,25s0-7.5,0.1-10.1c0.1-2.4,0.5-3.8,0.9-4.7l0,0
		c0.5-1.2,1-2,1.9-2.9c0.9-0.9,1.7-1.4,2.9-1.9c0.9-0.3,2.2-0.8,4.7-0.9c1.5-0.1,6.4-0.1,10.1-0.1c3.7,0,8.6,0,10.1,0.1
		c2.5,0.1,3.8,0.5,4.7,0.9c1.2,0.5,2,1,2.9,1.9c0.9,0.9,1.4,1.7,1.9,2.9c0.3,0.9,0.8,2.3,0.9,4.7c0.1,2.6,0.1,3.4,0.1,10.1
		C46.4,31.7,46.3,32.5,46.2,35.1z"/>
</g>
</svg>
