<?xml version="1.0" encoding="utf-8"?>
<!-- Generator: Adobe Illustrator 20.1.0, SVG Export Plug-In . SVG Version: 6.00 Build 0)  -->
<svg version="1.1" id="Слой_1" xmlns="http://www.w3.org/2000/svg" xmlns:xlink="http://www.w3.org/1999/xlink" x="0px" y="0px"
	 viewBox="0 0 58 58" style="enable-background:new 0 0 58 58;" xml:space="preserve">
<path d="M42.4,15.3C42.4,15.3,42.4,15.3,42.4,15.3C42.4,15.3,42.4,15.3,42.4,15.3C42.4,15.3,42.4,15.3,42.4,15.3
	C42.4,15.3,42.4,15.3,42.4,15.3 M42.4,12.6c-1.5,0-2.7,1.2-2.7,2.7s1.2,2.7,2.7,2.7c1.5,0,2.7-1.2,2.7-2.7S43.9,12.6,42.4,12.6
	L42.4,12.6z"/>
<path d="M29,20.7c4.6,0,8.3,3.7,8.3,8.3s-3.7,8.3-8.3,8.3s-8.3-3.7-8.3-8.3S24.4,20.7,29,20.7 M29,18c-6.1,0-11,4.9-11,11
	s4.9,11,11,11s11-4.9,11-11S35.1,18,29,18L29,18z"/>
<path d="M40.1,8.6c5.2,0,9.3,4.2,9.3,9.3v22.1c0,5.2-4.2,9.3-9.3,9.3H17.9c-5.2,0-9.3-4.2-9.3-9.3V17.9c0-5.2,4.2-9.3,9.3-9.3H40.1
	 M40.1,5.9H17.9c-6.6,0-12,5.4-12,12v22.1c0,6.6,5.4,12,12,12h22.1c6.6,0,12-5.4,12-12V17.9C52.1,11.3,46.7,5.9,40.1,5.9L40.1,5.9z"
	/>
</svg>
