<?xml version="1.0" encoding="utf-8"?>
<!-- Generator: Adobe Illustrator 20.1.0, SVG Export Plug-In . SVG Version: 6.00 Build 0)  -->
<svg version="1.1" id="Слой_1" xmlns="http://www.w3.org/2000/svg" xmlns:xlink="http://www.w3.org/1999/xlink" x="0px" y="0px"
	 viewBox="0 0 58 58" style="enable-background:new 0 0 58 58;" xml:space="preserve">
<path d="M38.5,19.8c0.7,0,1.3,0.7,1,1.9l-3.6,17.4c-0.2,0.8-0.6,1.2-1.1,1.2c-0.3,0-0.6-0.1-0.9-0.3l-8.7-6.5c0,0-0.1-0.1-0.1-0.1
	c0,0,0-0.1,0-0.1c0,0,0-0.1,0-0.1c0,0,0-0.1,0.1-0.1l10-9.2c0.3-0.3,0.2-0.4-0.1-0.4c-0.2,0-0.4,0.1-0.6,0.2l-12.6,8
	c0,0-0.1,0-0.1,0c0,0,0,0,0,0c0,0-0.1,0-0.1,0l-5.3-1.7c-1.2-0.4-1.2-1.2,0.3-1.8L37.9,20C38.1,19.9,38.3,19.8,38.5,19.8 M38.5,17.1
	c0,0-0.1,0-0.1,0c-0.5,0-1,0.1-1.5,0.3l-21.3,8.3c-2.7,1.1-2.9,2.9-2.8,3.7c0.1,1.5,1.1,2.7,2.8,3.2l5.3,1.7
	c0.3,0.1,0.6,0.1,0.9,0.1c0.1,0,0.3,0,0.4,0c0.1,0,0.3,0,0.4-0.1c0,0.1,0.1,0.2,0.1,0.3c0.2,0.4,0.5,0.8,0.9,1.1l8.7,6.5
	c0.1,0.1,0.2,0.1,0.3,0.2c0.7,0.4,1.5,0.6,2.2,0.6c1.5,0,3.2-0.9,3.8-3.4l3.6-17.3c0.3-1.4,0.1-2.8-0.7-3.8
	C40.7,17.6,39.7,17.1,38.5,17.1L38.5,17.1z"/>
<path d="M29,8.6c11.3,0,20.4,9.1,20.4,20.4S40.3,49.4,29,49.4S8.6,40.3,8.6,29S17.7,8.6,29,8.6 M29,5.9C16.3,5.9,5.9,16.3,5.9,29
	S16.3,52.1,29,52.1S52.1,41.7,52.1,29S41.7,5.9,29,5.9L29,5.9z"/>
</svg>
