<svg width="42" height="36" viewBox="0 0 42 36" fill="none" xmlns="http://www.w3.org/2000/svg">
<path d="M39.1982 1C40.4308 1 41.3607 2.09548 40.8633 4.13308L34.8299 32.9443C34.4083 34.9928 33.1864 35.4858 31.4997 34.5327L17.1082 23.7641C17.0524 23.7236 17.0069 23.6701 16.9755 23.6082C16.9442 23.5463 16.9278 23.4777 16.9278 23.4081C16.9278 23.3385 16.9442 23.2699 16.9755 23.208C17.0069 23.1461 17.0524 23.0926 17.1082 23.0521L33.7271 7.84677C34.4839 7.16757 33.5649 6.83892 32.5701 7.45239L11.7127 20.7844C11.6494 20.8262 11.5776 20.8529 11.5027 20.8624C11.4277 20.8719 11.3517 20.8639 11.2802 20.8392L2.42471 18.0019C0.456829 17.4213 0.456829 16.0519 2.86803 15.077L38.3008 1.23005C38.5822 1.09456 38.8871 1.0164 39.1982 1Z" stroke="black" stroke-width="1.7" stroke-linecap="round" stroke-linejoin="round"/>
</svg>
