<svg width="54" height="54" viewBox="0 0 54 54" fill="none" xmlns="http://www.w3.org/2000/svg">
<path d="M26.7739 0.000158852C12.1407 0.000158852 0.214406 11.8668 0.214406 26.4267C0.214406 31.0934 1.44724 35.6267 3.75209 39.6267L0 53.3333L14.0704 49.6533C17.9564 51.76 22.325 52.88 26.7739 52.88C41.407 52.88 53.3333 41.0134 53.3333 26.4534C53.3333 19.3868 50.5729 12.7468 45.5611 7.76014C43.1041 5.29061 40.1774 3.3326 36.9518 2.00029C33.7262 0.667982 30.2663 -0.0119469 26.7739 0.000158852ZM26.8007 4.45348C32.6968 4.45348 38.2178 6.74681 42.3987 10.9068C44.4505 12.9477 46.0773 15.3716 47.1857 18.0395C48.2941 20.7073 48.8622 23.5666 48.8576 26.4534C48.8576 38.56 38.9414 48.4 26.7739 48.4C22.8074 48.4 18.9213 47.36 15.5444 45.3334L14.7404 44.88L6.37856 47.0667L8.60302 38.96L8.067 38.1067C5.85311 34.6098 4.68211 30.5596 4.69012 26.4267C4.71692 14.3201 14.6064 4.45348 26.8007 4.45348ZM17.3668 14.2135C16.938 14.2135 16.2144 14.3734 15.598 15.0401C15.0084 15.7068 13.2663 17.3334 13.2663 20.5601C13.2663 23.8134 15.6516 26.9334 15.9464 27.3867C16.3216 27.8401 20.6633 34.5067 27.3367 37.3334C28.9179 38.0534 30.1508 38.4534 31.1156 38.7467C32.6968 39.2534 34.1441 39.1734 35.2965 39.0134C36.5829 38.8267 39.2094 37.4134 39.7722 35.8667C40.335 34.3201 40.335 33.0134 40.1742 32.7201C39.9866 32.4534 39.5578 32.2934 38.8878 32.0001C38.2178 31.6267 34.9481 30.0267 34.3585 29.8134C33.742 29.6001 33.3668 29.4934 32.8576 30.1334C32.4288 30.8001 31.1424 32.2934 30.7672 32.7201C30.3652 33.1734 29.9899 33.2267 29.3467 32.9067C28.6499 32.5601 26.5059 31.8667 23.9866 29.6267C22.0033 27.8667 20.6901 25.7068 20.2881 25.0401C19.9665 24.4001 20.2613 24.0001 20.5829 23.7068C20.8777 23.4134 21.3065 22.9334 21.5745 22.5334C21.9229 22.1601 22.0301 21.8668 22.2446 21.4401C22.459 20.9868 22.3518 20.6134 22.191 20.2934C22.0301 20.0001 20.6901 16.6934 20.1273 15.3868C19.5913 14.1068 19.0553 14.2668 18.6265 14.2401C18.2513 14.2401 17.8224 14.2135 17.3668 14.2135Z" fill="white"/>
</svg>
