<svg width="42" height="41" viewBox="0 0 42 41" fill="none" xmlns="http://www.w3.org/2000/svg">
<path d="M32.7385 24.7728L26.2385 21.5228C26.1105 21.4591 25.968 21.4302 25.8254 21.4391C25.6827 21.448 25.545 21.4944 25.426 21.5736L22.046 23.8283C20.188 22.9372 18.6897 21.4389 17.7986 19.5809L20.0533 16.2009C20.1325 16.0819 20.1789 15.9442 20.1878 15.8015C20.1967 15.6589 20.1678 15.5164 20.1041 15.3884L16.8541 8.88844C16.7867 8.75276 16.6827 8.63864 16.5538 8.55895C16.4249 8.47927 16.2764 8.4372 16.1249 8.4375C14.1855 8.4375 12.3255 9.20792 10.9542 10.5793C9.58279 11.9506 8.81237 13.8106 8.81237 15.75C8.81721 20.2738 10.6164 24.6109 13.8152 27.8097C17.014 31.0085 21.3511 32.8077 25.8749 32.8125C27.8143 32.8125 29.6742 32.0421 31.0456 30.6707C32.4169 29.2994 33.1874 27.4394 33.1874 25.5C33.1875 25.3491 33.1455 25.2011 33.0662 25.0726C32.987 24.9442 32.8735 24.8404 32.7385 24.7728ZM25.8749 31.1875C21.7819 31.1832 17.8578 29.5554 14.9637 26.6612C12.0695 23.767 10.4417 19.843 10.4374 15.75C10.4371 14.3265 10.9707 12.9547 11.9327 11.9054C12.8947 10.8562 14.2151 10.2058 15.6333 10.0828L18.4364 15.6911L16.2021 19.0508C16.1276 19.1616 16.0816 19.2891 16.0681 19.422C16.0547 19.5548 16.0741 19.689 16.1249 19.8125C17.2044 22.3789 19.246 24.4205 21.8124 25.5C21.936 25.5514 22.0704 25.5714 22.2037 25.5583C22.3369 25.5452 22.4649 25.4993 22.5761 25.4248L25.9358 23.1905L31.5441 25.9936C31.4205 27.4117 30.7697 28.732 29.7201 29.6936C28.6705 30.6552 27.2984 31.1883 25.8749 31.1875ZM20.9999 0.3125C17.4636 0.311843 13.9885 1.23438 10.9182 2.98885C7.84789 4.74333 5.28881 7.26896 3.49409 10.3159C1.69936 13.3629 0.731178 16.8256 0.685303 20.3615C0.639429 23.8974 1.51745 27.3841 3.23253 30.4766L0.815338 37.7261C0.672111 38.1556 0.651326 38.6165 0.755311 39.0571C0.859297 39.4977 1.08394 39.9007 1.40407 40.2208C1.7242 40.5409 2.12716 40.7656 2.56779 40.8696C3.00842 40.9735 3.4693 40.9528 3.89878 40.8095L11.1483 38.3923C13.8601 39.8949 16.8799 40.7569 19.9763 40.912C23.0727 41.0672 26.1636 40.5116 29.012 39.2876C31.8605 38.0637 34.391 36.204 36.4097 33.8509C38.4284 31.4979 39.8816 28.714 40.6581 25.7125C41.4346 22.711 41.5138 19.5716 40.8895 16.5349C40.2652 13.4981 38.9541 10.6445 37.0565 8.19271C35.159 5.74094 32.7254 3.75607 29.9423 2.39016C27.1591 1.02424 24.1002 0.31354 20.9999 0.3125ZM20.9999 39.3125C17.7143 39.3135 14.4865 38.4482 11.6419 36.8039C11.5183 36.7327 11.3783 36.6949 11.2357 36.6942C11.1479 36.6942 11.0607 36.7086 10.9777 36.7369L3.38487 39.2678C3.24171 39.3156 3.08808 39.3225 2.94121 39.2878C2.79433 39.2532 2.66001 39.1783 2.5533 39.0716C2.44659 38.9649 2.37171 38.8305 2.33705 38.6837C2.30239 38.5368 2.30931 38.3832 2.35706 38.24L4.88799 30.6472C4.9245 30.538 4.9374 30.4224 4.92585 30.3079C4.91429 30.1934 4.87854 30.0826 4.82096 29.983C2.76067 26.4217 1.93325 22.28 2.46705 18.2004C3.00085 14.1209 4.86603 10.3315 7.77325 7.42023C10.6805 4.50893 14.4672 2.63841 18.546 2.09888C22.6248 1.55934 26.7676 2.38095 30.3318 4.43623C33.896 6.49151 36.6823 9.66558 38.2585 13.466C39.8346 17.2665 40.1125 21.4808 39.049 25.4553C37.9856 29.4298 35.6402 32.9423 32.3767 35.4478C29.1133 37.9533 25.1142 39.3118 20.9999 39.3125Z" fill="white"/>
</svg>
