<svg width="44" height="44" viewBox="0 0 44 44" fill="none" xmlns="http://www.w3.org/2000/svg">
<path d="M34.1901 26.3073L27.4401 22.9323C27.3072 22.8661 27.1593 22.8362 27.0111 22.8454C26.863 22.8547 26.7199 22.9028 26.5963 22.9851L23.0863 25.3265C21.1569 24.4012 19.6009 22.8452 18.6756 20.9158L21.017 17.4058C21.0993 17.2822 21.1474 17.1391 21.1567 16.991C21.166 16.8428 21.136 16.6949 21.0698 16.562L17.6948 9.81203C17.6248 9.67114 17.5168 9.55262 17.3829 9.46987C17.2491 9.38713 17.0948 9.34344 16.9375 9.34375C14.9235 9.34375 12.992 10.1438 11.5679 11.5679C10.1438 12.992 9.34376 14.9235 9.34376 16.9375C9.34879 21.6353 11.2172 26.1392 14.539 29.461C17.8608 32.7828 22.3648 34.6512 27.0625 34.6562C29.0765 34.6562 31.008 33.8562 32.4321 32.4321C33.8562 31.008 34.6563 29.0765 34.6563 27.0625C34.6564 26.9057 34.6128 26.7521 34.5305 26.6187C34.4481 26.4853 34.3303 26.3775 34.1901 26.3073ZM27.0625 32.9688C22.8121 32.9643 18.7371 31.2738 15.7316 28.2684C12.7262 25.2629 11.0357 21.1879 11.0313 16.9375C11.031 15.4593 11.5851 14.0347 12.5841 12.9451C13.5831 11.8555 14.9543 11.1801 16.427 11.0523L19.338 16.8763L17.0177 20.3652C16.9403 20.4803 16.8926 20.6127 16.8786 20.7507C16.8646 20.8887 16.8848 21.028 16.9375 21.1562C18.0585 23.8213 20.1787 25.9415 22.8438 27.0625C22.9722 27.1158 23.1118 27.1366 23.2501 27.123C23.3885 27.1094 23.5214 27.0618 23.6369 26.9845L27.1258 24.6641L32.9498 27.5751C32.8215 29.0478 32.1456 30.4188 31.0556 31.4174C29.9656 32.416 28.5408 32.9696 27.0625 32.9688ZM22 0.90625C18.3278 0.905568 14.719 1.86359 11.5306 3.68554C8.34219 5.5075 5.68469 8.13026 3.82093 11.2944C1.95718 14.4585 0.951758 18.0544 0.904119 21.7264C0.85648 25.3983 1.76827 29.019 3.54931 32.2305L1.03915 39.7588C0.89042 40.2048 0.868835 40.6834 0.97682 41.141C1.0848 41.5986 1.31809 42.017 1.65053 42.3495C1.98298 42.6819 2.40143 42.9152 2.85901 43.0232C3.31658 43.1312 3.79519 43.1096 4.24119 42.9609L11.7695 40.4507C14.5857 42.0111 17.7216 42.9062 20.9371 43.0673C24.1526 43.2285 27.3623 42.6514 30.3204 41.3804C33.2784 40.1094 35.9062 38.1781 38.0025 35.7346C40.0988 33.2911 41.608 30.4001 42.4144 27.2832C43.2207 24.1663 43.3029 20.9061 42.6546 17.7525C42.0063 14.599 40.6448 11.6356 38.6743 9.08954C36.7037 6.54348 34.1766 4.48226 31.2863 3.06382C28.3961 1.64537 25.2195 0.90733 22 0.90625ZM22 41.4062C18.588 41.4073 15.2361 40.5087 12.2821 38.8012C12.1538 38.7273 12.0084 38.688 11.8602 38.6873C11.7691 38.6875 11.6787 38.7024 11.5924 38.7316L3.70751 41.3598C3.55885 41.4094 3.39931 41.4166 3.24679 41.3806C3.09426 41.3446 2.95478 41.2669 2.84396 41.1561C2.73315 41.0452 2.65539 40.9058 2.61939 40.7532C2.5834 40.6007 2.59059 40.4412 2.64017 40.2925L5.26845 32.4077C5.30636 32.2943 5.31976 32.1742 5.30776 32.0553C5.29576 31.9364 5.25864 31.8214 5.19884 31.7179C3.05931 28.0196 2.20006 23.7186 2.75439 19.4822C3.30872 15.2457 5.24565 11.3106 8.26468 8.28736C11.2837 5.26408 15.2161 3.32162 19.4518 2.76134C23.6874 2.20105 27.9896 3.05425 31.6909 5.18858C35.3922 7.32292 38.2856 10.6191 39.9224 14.5657C41.5592 18.5123 41.8477 22.8888 40.7434 27.0161C39.639 31.1435 37.2034 34.791 33.8144 37.3929C30.4255 39.9948 26.2726 41.4055 22 41.4062Z" fill="white"/>
</svg>
