<svg width="58" height="58" viewBox="0 0 58 58" fill="none" xmlns="http://www.w3.org/2000/svg">
<path d="M42.2947 33.2209L35.0447 29.5959C34.8305 29.4894 34.5921 29.4412 34.3534 29.4564C34.1147 29.4715 33.8843 29.5493 33.6853 29.682L30.1328 32.0495C28.3344 31.1287 26.8712 29.6656 25.9504 27.8672L28.3203 24.317C28.4529 24.118 28.5308 23.8875 28.5459 23.6488C28.561 23.4102 28.5129 23.1717 28.4064 22.9576L24.7814 15.7076C24.6687 15.4808 24.4948 15.2899 24.2795 15.1566C24.0641 15.0233 23.8158 14.9528 23.5625 14.9531C21.2791 14.9531 19.0893 15.8602 17.4747 17.4748C15.8602 19.0893 14.9531 21.2792 14.9531 23.5625C14.9591 28.7282 17.0138 33.6807 20.6666 37.3334C24.3193 40.9861 29.2717 43.0409 34.4375 43.0469C36.7208 43.0469 38.9106 42.1398 40.5252 40.5252C42.1398 38.9107 43.0468 36.7208 43.0468 34.4375C43.0469 34.1848 42.9766 33.9372 42.8437 33.7222C42.7108 33.5073 42.5207 33.3337 42.2947 33.2209ZM34.4375 40.3281C29.9926 40.3227 25.7313 38.5546 22.5883 35.4116C19.4453 32.2686 17.6772 28.0074 17.6718 23.5625C17.672 22.1408 18.1863 20.7671 19.1198 19.6949C20.0534 18.6227 21.3432 17.9243 22.7514 17.7285L25.6197 23.4651L23.2657 26.9949C23.142 27.1811 23.0661 27.3949 23.0448 27.6174C23.0234 27.8399 23.0573 28.0642 23.1433 28.2705C24.3933 31.2424 26.7575 33.6066 29.7295 34.8566C29.9358 34.9427 30.1601 34.9765 30.3826 34.9552C30.6051 34.9339 30.8189 34.858 31.005 34.7343L34.5349 32.3803L40.2715 35.2486C40.0757 36.6567 39.3773 37.9466 38.3051 38.8801C37.2328 39.8137 35.8592 40.328 34.4375 40.3281ZM29 5.89063C24.9939 5.88978 21.0563 6.93038 17.5737 8.91033C14.0911 10.8903 11.183 13.7416 9.13471 17.1844C7.08643 20.6273 5.96835 24.5436 5.89015 28.5489C5.81195 32.5542 6.77631 36.5111 8.68864 40.0313L6.05599 47.9316C5.86961 48.4904 5.84256 49.0902 5.97787 49.6636C6.11319 50.2369 6.40552 50.7613 6.82209 51.1779C7.23867 51.5945 7.76304 51.8868 8.33642 52.0221C8.9098 52.1574 9.50953 52.1304 10.0684 51.944L17.9686 49.3113C21.0612 50.9896 24.4961 51.9395 28.0115 52.0886C31.5269 52.2377 35.0299 51.5822 38.2535 50.1719C41.4771 48.7616 44.3361 46.6339 46.6124 43.9509C48.8888 41.2679 50.5225 38.1006 51.3889 34.6903C52.2553 31.2801 52.3315 27.7171 51.6118 24.2729C50.892 20.8287 49.3953 17.5944 47.2358 14.8165C45.0763 12.0386 42.3109 9.79052 39.1506 8.24365C35.9903 6.69678 32.5185 5.89199 29 5.89063ZM29 49.3906C25.4156 49.3915 21.8943 48.4475 18.7911 46.6537C18.5841 46.5349 18.35 46.4717 18.1114 46.4702C17.9651 46.4711 17.8199 46.4948 17.6809 46.5405L9.20974 49.3634C9.1299 49.3901 9.04422 49.3939 8.96231 49.3746C8.8804 49.3553 8.80549 49.3135 8.74598 49.254C8.68647 49.1945 8.6447 49.1196 8.62537 49.0377C8.60604 48.9558 8.60991 48.8701 8.63653 48.7902L11.4595 40.3281C11.5206 40.1453 11.5421 39.9515 11.5225 39.7597C11.503 39.5679 11.4429 39.3825 11.3462 39.2157C9.09703 35.3304 8.19296 30.8114 8.77426 26.3598C9.35556 21.9082 11.3897 17.7728 14.5612 14.5953C17.7327 11.4178 21.8641 9.37583 26.3146 8.78608C30.7651 8.19633 35.2858 9.09183 39.1754 11.3336C43.065 13.5754 46.106 17.0382 47.8267 21.1848C49.5474 25.3314 49.8515 29.9299 48.6919 34.2669C47.5323 38.604 44.9738 42.4371 41.4133 45.1716C37.8528 47.9061 33.4894 49.3891 29 49.3906Z" fill="white"/>
</svg>
