<svg width="50" height="50" viewBox="0 0 50 50" fill="none" xmlns="http://www.w3.org/2000/svg">
<path d="M25.101 0.00112549C11.3824 0.00112549 0.201494 11.1261 0.201494 24.7761C0.201494 29.151 1.35727 33.401 3.51808 37.151L0.000488281 50.001L13.1914 46.551C16.8347 48.526 20.9301 49.576 25.101 49.576C38.8196 49.576 50.0005 38.451 50.0005 24.8011C50.0005 18.1761 47.4125 11.9511 42.7141 7.2761C40.4105 4.96093 37.6668 3.12529 34.6428 1.87625C31.6188 0.627209 28.3752 -0.0102237 25.101 0.00112549ZM25.1261 4.17611C30.6538 4.17611 35.8296 6.32611 39.7492 10.2261C41.6729 12.1395 43.198 14.4119 44.2371 16.913C45.2762 19.4141 45.8088 22.0947 45.8045 24.8011C45.8045 36.151 36.508 45.376 25.101 45.376C21.3824 45.376 17.7392 44.401 14.5734 42.501L13.8196 42.076L5.98039 44.126L8.06581 36.526L7.5633 35.726C5.48778 32.4477 4.38997 28.6506 4.39747 24.7761C4.4226 13.4261 13.694 4.17611 25.1261 4.17611ZM16.2819 13.3261C15.8799 13.3261 15.2015 13.4761 14.6236 14.1011C14.0708 14.7261 12.4377 16.2511 12.4377 19.2761C12.4377 22.3261 14.6739 25.2511 14.9502 25.676C15.302 26.101 19.3723 32.351 25.6286 35.001C27.111 35.676 28.2668 36.051 29.1713 36.326C30.6538 36.801 32.0105 36.726 33.0909 36.576C34.297 36.401 36.7593 35.076 37.2869 33.626C37.8146 32.176 37.8146 30.951 37.6638 30.676C37.4879 30.426 37.0859 30.276 36.4578 30.001C35.8296 29.651 32.7643 28.151 32.2115 27.951C31.6336 27.751 31.2819 27.651 30.8045 28.251C30.4025 28.876 29.1965 30.276 28.8447 30.676C28.4678 31.101 28.1161 31.151 27.513 30.851C26.8598 30.526 24.8497 29.876 22.4879 27.776C20.6286 26.126 19.3975 24.1011 19.0206 23.4761C18.7191 22.8761 18.9955 22.5011 19.297 22.2261C19.5733 21.9511 19.9754 21.5011 20.2266 21.1261C20.5533 20.7761 20.6538 20.5011 20.8548 20.1011C21.0558 19.6761 20.9553 19.3261 20.8045 19.0261C20.6538 18.7511 19.3975 15.6511 18.8698 14.4261C18.3673 13.2261 17.8648 13.3761 17.4628 13.3511C17.111 13.3511 16.709 13.3261 16.2819 13.3261Z" fill="black"/>
</svg>
