<svg width="0" height="0" class="hidden">
  <!-- cross -->
  <symbol xmlns="http://www.w3.org/2000/svg" viewBox="0 0 28 28" id="cross">
    <path d="M12.6 0H15.4V9.8H12.6V0ZM12.6 18.2H15.4V28H12.6V18.2ZM18.2 12.6H28V15.4H18.2V12.6ZM0 12.6H9.8V15.4H0V12.6Z"></path>
  </symbol>

  <!-- quote -->
  <symbol xmlns="http://www.w3.org/2000/svg" viewBox="0 0 50 38" id="quote">
    <path d="M0 0.25V37.75L18.75 19V0.25H0ZM31.25 0.25V37.75L50 19V0.25H31.25Z"></path>
  </symbol>

 <!-- arrow -->
  <symbol xmlns="http://www.w3.org/2000/svg" viewBox="0 0 24 25" id="arrow_up">
    <path d="M13.0607 0.939341C12.4749 0.353554 11.5251 0.353554 10.9393 0.939341L1.3934 10.4853C0.807611 11.0711 0.807611 12.0208 1.3934 12.6066C1.97919 13.1924 2.92893 13.1924 3.51472 12.6066L12 4.12132L20.4853 12.6066C21.0711 13.1924 22.0208 13.1924 22.6066 12.6066C23.1924 12.0208 23.1924 11.0711 22.6066 10.4853L13.0607 0.939341ZM13.5 25L13.5 2H10.5L10.5 25H13.5Z"></path>
  </symbol>
</svg>
