<svg width="0" height="0" class="hidden">
  <!-- cross -->
  <symbol xmlns="http://www.w3.org/2000/svg" viewBox="0 0 28 28" id="cross">
    <path d="M12.6 0H15.4V9.8H12.6V0ZM12.6 18.2H15.4V28H12.6V18.2ZM18.2 12.6H28V15.4H18.2V12.6ZM0 12.6H9.8V15.4H0V12.6Z"></path>
  </symbol>

  <!-- quote -->
  <symbol xmlns="http://www.w3.org/2000/svg" viewBox="0 0 50 38" id="quote">
    <path d="M0 0.25V37.75L18.75 19V0.25H0ZM31.25 0.25V37.75L50 19V0.25H31.25Z"></path>
  </symbol>

 <!-- arrow -->
  <symbol xmlns="http://www.w3.org/2000/svg" viewBox="0 0 67 36" id="arrow_up">
    <path d="M66.6741 33.4667C66.6741 34.0266 66.4527 34.5996 66.023 35.0293C65.1637 35.8887 63.7574 35.8887 62.898 35.0293L33.484 5.61524L4.49959 34.5996C3.64021 35.459 2.23396 35.459 1.37459 34.5996C0.515213 33.7402 0.515213 32.334 1.37459 31.4746L31.9215 0.914719C32.7808 0.0553436 34.1871 0.0553436 35.0465 0.914719L66.023 31.8913C66.4657 32.334 66.6741 32.8938 66.6741 33.4667Z"></path>
  </symbol>
</svg>


<svg width="0" height="0" class="hidden">
  <symbol xmlns="http://www.w3.org/2000/svg" viewBox="0 0 67 36" id="arrow_up">
    <path d="M66.6741 33.4667C66.6741 34.0266 66.4527 34.5996 66.023 35.0293C65.1637 35.8887 63.7574 35.8887 62.898 35.0293L33.484 5.61524L4.49959 34.5996C3.64021 35.459 2.23396 35.459 1.37459 34.5996C0.515213 33.7402 0.515213 32.334 1.37459 31.4746L31.9215 0.914719C32.7808 0.0553436 34.1871 0.0553436 35.0465 0.914719L66.023 31.8913C66.4657 32.334 66.6741 32.8938 66.6741 33.4667Z"></path>
  </symbol>
</svg>